<svg width="58" height="58" viewBox="0 0 58 58" fill="none" xmlns="http://www.w3.org/2000/svg">
<rect width="57.59" height="57.59" rx="14.4" fill="#E96A32"/>
<g clip-path="url(#clip0_1_96)">
<g clip-path="url(#clip1_1_96)">
<path d="M40.9764 16.1971C43.0352 16.1971 44.7042 17.8662 44.7042 19.925C44.7042 21.9839 43.0352 23.6529 40.9764 23.6529H30.1968C29.9394 23.6529 29.7308 23.4443 29.7308 23.1869C29.7308 19.3265 32.8602 16.1971 36.7206 16.1971H40.9764Z" fill="#FEFEFE"/>
<path d="M16.6136 42.2927C14.5548 42.2927 12.8857 40.6236 12.8857 38.5648C12.8857 36.5059 14.5548 34.8369 16.6136 34.8369H27.3932C27.6506 34.8369 27.8591 35.0455 27.8591 35.3029C27.8591 39.1633 24.7298 42.2927 20.8693 42.2927H16.6136Z" fill="#FEFEFE"/>
<path d="M48.4631 25.5171C50.5219 25.5171 52.1909 27.1861 52.1909 29.245C52.1909 31.3038 50.5219 32.9728 48.4631 32.9728H30.1969C29.9394 32.9728 29.7308 32.7642 29.7308 32.5068C29.7308 28.6465 32.8602 25.5171 36.7206 25.5171H48.4631Z" fill="#FEFEFE"/>
<path d="M16.6136 16.1971C14.5548 16.1971 12.8857 17.8662 12.8857 19.925C12.8857 21.9839 14.5548 23.6529 16.6136 23.6529H27.3932C27.6506 23.6529 27.8591 23.4443 27.8591 23.1869C27.8591 19.3266 24.7298 16.1971 20.8693 16.1971H16.6136Z" fill="#FEFEFE"/>
<path d="M40.9765 42.2927C43.0353 42.2927 44.7044 40.6236 44.7044 38.5648C44.7044 36.5059 43.0353 34.8369 40.9764 34.8369H30.1969C29.9395 34.8369 29.731 35.0455 29.731 35.3029C29.731 39.1633 32.8603 42.2927 36.7207 42.2927H40.9765Z" fill="#FEFEFE"/>
<path d="M9.12692 25.5171C7.06807 25.5171 5.39905 27.1861 5.39905 29.245C5.39905 31.3038 7.06808 32.9728 9.12692 32.9728H27.3931C27.6505 32.9728 27.8591 32.7642 27.8591 32.5068C27.8591 28.6465 24.7298 25.5171 20.8693 25.5171H9.12692Z" fill="#FEFEFE"/>
</g>
</g>
<defs>
<clipPath id="clip0_1_96">
<rect width="57.59" height="57.59" fill="white"/>
</clipPath>
<clipPath id="clip1_1_96">
<rect width="57.59" height="57.59" fill="white"/>
</clipPath>
</defs>
</svg>
