<svg width="44" height="44" viewBox="0 0 44 44" fill="none" xmlns="http://www.w3.org/2000/svg">
<rect width="44" height="44" rx="11" fill="#090A0B"/>
<g clip-path="url(#clip0_1_232)">
<g clip-path="url(#clip1_1_232)">
<path d="M31.3069 12.375C32.8799 12.375 34.1551 13.6502 34.1551 15.2232C34.1551 16.7962 32.8799 18.0714 31.3069 18.0714H23.0711C22.8744 18.0714 22.7151 17.912 22.7151 17.7154C22.7151 14.7659 25.106 12.375 28.0554 12.375H31.3069Z" fill="#FEFEFE"/>
<path d="M12.6931 32.3126C11.1201 32.3126 9.84497 31.0374 9.84497 29.4644C9.84497 27.8914 11.1201 26.6162 12.6931 26.6162H20.929C21.1256 26.6162 21.285 26.7756 21.285 26.9722C21.285 29.9216 18.8941 32.3126 15.9446 32.3126H12.6931Z" fill="#FEFEFE"/>
<path d="M37.0269 19.4956C38.5999 19.4956 39.8751 20.7708 39.8751 22.3438C39.8751 23.9168 38.5999 25.192 37.0269 25.192H23.0711C22.8744 25.192 22.7151 25.0325 22.7151 24.8359C22.7151 21.8865 25.106 19.4956 28.0554 19.4956H37.0269Z" fill="#FEFEFE"/>
<path d="M12.6931 12.375C11.1201 12.375 9.84497 13.6502 9.84497 15.2232C9.84497 16.7962 11.1201 18.0714 12.6931 18.0714H20.929C21.1256 18.0714 21.285 17.912 21.285 17.7154C21.285 14.766 18.8941 12.375 15.9446 12.375H12.6931Z" fill="#FEFEFE"/>
<path d="M31.3069 32.3126C32.8799 32.3126 34.1551 31.0374 34.1551 29.4644C34.1551 27.8914 32.8799 26.6162 31.3068 26.6162H23.0711C22.8744 26.6162 22.7151 26.7756 22.7151 26.9722C22.7151 29.9216 25.106 32.3126 28.0554 32.3126H31.3069Z" fill="#FEFEFE"/>
<path d="M6.97318 19.4956C5.40017 19.4956 4.125 20.7708 4.125 22.3438C4.125 23.9168 5.40018 25.192 6.97318 25.192H20.9289C21.1256 25.192 21.285 25.0325 21.285 24.8359C21.285 21.8865 18.8941 19.4956 15.9446 19.4956H6.97318Z" fill="#FEFEFE"/>
</g>
</g>
<defs>
<clipPath id="clip0_1_232">
<rect width="44" height="44" fill="white"/>
</clipPath>
<clipPath id="clip1_1_232">
<rect width="44" height="44" fill="white"/>
</clipPath>
</defs>
</svg>
