<svg width="36" height="36" viewBox="0 0 36 36" fill="none" xmlns="http://www.w3.org/2000/svg">
<rect width="36" height="36" rx="18" fill="#282828"/>
<path d="M21.3333 10.5C22.4384 10.5 23.4982 10.939 24.2796 11.7204C25.061 12.5018 25.5 13.5616 25.5 14.6667V21.3333C25.5 22.4384 25.061 23.4982 24.2796 24.2796C23.4982 25.061 22.4384 25.5 21.3333 25.5H14.6667C13.5616 25.5 12.5018 25.061 11.7204 24.2796C10.939 23.4982 10.5 22.4384 10.5 21.3333V14.6667C10.5 13.5616 10.939 12.5018 11.7204 11.7204C12.5018 10.939 13.5616 10.5 14.6667 10.5H21.3333ZM18 14.6667C17.1159 14.6667 16.2681 15.0179 15.643 15.643C15.0179 16.2681 14.6667 17.1159 14.6667 18C14.6667 18.8841 15.0179 19.7319 15.643 20.357C16.2681 20.9821 17.1159 21.3333 18 21.3333C18.8841 21.3333 19.7319 20.9821 20.357 20.357C20.9821 19.7319 21.3333 18.8841 21.3333 18C21.3333 17.1159 20.9821 16.2681 20.357 15.643C19.7319 15.0179 18.8841 14.6667 18 14.6667ZM18 16.3333C18.442 16.3333 18.866 16.5089 19.1785 16.8215C19.4911 17.1341 19.6667 17.558 19.6667 18C19.6667 18.442 19.4911 18.866 19.1785 19.1785C18.866 19.4911 18.442 19.6667 18 19.6667C17.558 19.6667 17.1341 19.4911 16.8215 19.1785C16.5089 18.866 16.3333 18.442 16.3333 18C16.3333 17.558 16.5089 17.1341 16.8215 16.8215C17.1341 16.5089 17.558 16.3333 18 16.3333ZM21.75 13.4167C21.529 13.4167 21.317 13.5045 21.1607 13.6607C21.0045 13.817 20.9167 14.029 20.9167 14.25C20.9167 14.471 21.0045 14.683 21.1607 14.8393C21.317 14.9955 21.529 15.0833 21.75 15.0833C21.971 15.0833 22.183 14.9955 22.3393 14.8393C22.4955 14.683 22.5833 14.471 22.5833 14.25C22.5833 14.029 22.4955 13.817 22.3393 13.6607C22.183 13.5045 21.971 13.4167 21.75 13.4167Z" fill="white"/>
</svg>
