<svg width="36" height="36" viewBox="0 0 36 36" fill="none" xmlns="http://www.w3.org/2000/svg">
<rect width="36" height="36" rx="18" fill="#282828"/>
<path d="M22.4192 9.875H13.5808C12.598 9.875 11.6554 10.2654 10.9604 10.9604C10.2654 11.6554 9.875 12.598 9.875 13.5808V22.4192C9.875 23.402 10.2654 24.3446 10.9604 25.0396C11.6554 25.7346 12.598 26.125 13.5808 26.125H22.4192C23.402 26.125 24.3446 25.7346 25.0396 25.0396C25.7346 24.3446 26.125 23.402 26.125 22.4192V13.5808C26.125 12.598 25.7346 11.6554 25.0396 10.9604C24.3446 10.2654 23.402 9.875 22.4192 9.875ZM15.3692 22.9933C15.3718 23.0387 15.3651 23.0841 15.3495 23.1268C15.3339 23.1695 15.3098 23.2085 15.2786 23.2415C15.2474 23.2745 15.2097 23.3008 15.168 23.3188C15.1262 23.3367 15.0813 23.3459 15.0358 23.3458H13.5525C13.463 23.3437 13.378 23.3065 13.3157 23.2423C13.2534 23.1781 13.2187 23.092 13.2192 23.0025V16.8333C13.2179 16.7888 13.2257 16.7445 13.2419 16.703C13.2581 16.6614 13.2824 16.6236 13.3135 16.5917C13.3446 16.5597 13.3817 16.5344 13.4228 16.517C13.4638 16.4997 13.5079 16.4908 13.5525 16.4908H15.0358C15.0804 16.4908 15.1245 16.4997 15.1656 16.517C15.2066 16.5344 15.2438 16.5597 15.2748 16.5917C15.3059 16.6236 15.3303 16.6614 15.3465 16.703C15.3627 16.7445 15.3704 16.7888 15.3692 16.8333V22.9933ZM14.2667 15.1933C14.1061 15.1921 13.9473 15.1593 13.7994 15.0967C13.6515 15.0342 13.5173 14.9431 13.4046 14.8287C13.2919 14.7143 13.2028 14.5788 13.1425 14.4299C13.0821 14.2811 13.0517 14.1219 13.0529 13.9612C13.0541 13.8006 13.0869 13.6419 13.1495 13.494C13.2121 13.346 13.3032 13.2119 13.4176 13.0992C13.532 12.9865 13.6675 12.8974 13.8163 12.8371C13.9651 12.7767 14.1244 12.7463 14.285 12.7475C14.6038 12.7579 14.9059 12.8924 15.1268 13.1224C15.3478 13.3524 15.4701 13.6596 15.4677 13.9785C15.4653 14.2975 15.3384 14.6028 15.114 14.8295C14.8896 15.0561 14.5856 15.1861 14.2667 15.1917M23.2808 22.9833C23.2804 23.0675 23.2474 23.1483 23.1886 23.2086C23.1299 23.2689 23.05 23.3041 22.9658 23.3067H21.4C21.3157 23.3041 21.2357 23.2688 21.1769 23.2083C21.1181 23.1478 21.0852 23.0668 21.085 22.9825V20.1292C21.085 19.7033 21.215 18.2767 19.955 18.2767C18.9725 18.2767 18.7783 19.2767 18.7408 19.7217V23.0475C18.7409 23.132 18.708 23.2132 18.6492 23.2738C18.5904 23.3345 18.5103 23.3699 18.4258 23.3725H16.9067C16.8206 23.3723 16.7382 23.3379 16.6774 23.277C16.6166 23.2161 16.5825 23.1336 16.5825 23.0475V16.8033C16.5851 16.7189 16.6205 16.6388 16.6812 16.58C16.7418 16.5212 16.823 16.4883 16.9075 16.4883H18.4258C18.5103 16.4883 18.5915 16.5212 18.6522 16.58C18.7128 16.6388 18.7482 16.7189 18.7508 16.8033V17.3408C18.9725 17.0163 19.2786 16.7586 19.6361 16.5953C19.9935 16.432 20.3887 16.3693 20.7792 16.4142C23.3083 16.4142 23.2992 18.7767 23.2992 20.12L23.2808 22.9833Z" fill="white"/>
</svg>
