<svg width="44" height="44" viewBox="0 0 44 44" fill="none" xmlns="http://www.w3.org/2000/svg">
<rect width="44" height="44" rx="11" fill="#090A0B"/>
<g clip-path="url(#clip0_1_255)">
<g clip-path="url(#clip1_1_255)">
<path d="M27.5859 24.0625C27.5859 25.5575 26.3739 26.7695 24.8789 26.7695C23.3839 26.7695 22.1719 25.5575 22.1719 24.0625V16.2798C22.1719 16.0929 22.3234 15.9414 22.5103 15.9414C25.3135 15.9414 27.5859 18.2139 27.5859 21.0171V24.0625Z" fill="#FEFEFE"/>
<path d="M14.9531 18.6484C14.9531 17.1534 16.1651 15.9414 17.6602 15.9414C19.1552 15.9414 20.3672 17.1534 20.3672 18.6484V26.4311C20.3672 26.618 20.2157 26.7695 20.0288 26.7695C17.2256 26.7695 14.9531 24.4971 14.9531 21.6939V18.6484Z" fill="#FEFEFE"/>
<path d="M4.125 12.9102H7.08282C8.60165 12.9102 9.82127 14.1408 9.9365 15.6553C10.496 23.0103 13.635 33.7128 26.6975 34.5422C10.0033 34.5422 4.125 24.6667 4.125 12.9102Z" fill="#FEFEFE"/>
<path d="M39.4624 31.2571H36.5046C34.9859 31.2571 33.7662 30.0263 33.6509 28.5119C33.0914 21.1569 29.9524 10.4543 16.8899 9.625C33.5842 9.625 39.4624 19.5005 39.4624 31.2571Z" fill="#FEFEFE"/>
</g>
</g>
<defs>
<clipPath id="clip0_1_255">
<rect width="44" height="44" fill="white"/>
</clipPath>
<clipPath id="clip1_1_255">
<rect width="44" height="44" fill="white"/>
</clipPath>
</defs>
</svg>
