<svg width="44" height="44" viewBox="0 0 44 44" fill="none" xmlns="http://www.w3.org/2000/svg">
<rect width="44" height="44" rx="11" fill="#090A0B"/>
<g clip-path="url(#clip0_1_276)">
<g clip-path="url(#clip1_1_276)">
<path d="M18.2821 13.5439C16.6991 13.5439 15.4158 12.2606 15.4158 10.6776C15.4158 9.09444 16.6991 7.81116 18.2821 7.81116H37.0329C37.2308 7.81116 37.3912 7.97155 37.3912 8.16948C37.3912 11.1377 34.985 13.5439 32.0168 13.5439H18.2821Z" fill="#FEFEFE"/>
<path d="M14.4605 25.9651C14.4605 27.5481 13.1772 28.8314 11.5941 28.8314C10.0111 28.8314 8.72778 27.5481 8.72778 25.9651V7.692C8.72778 7.49413 8.88818 7.33374 9.08611 7.33374C12.0543 7.33374 14.4605 9.73992 14.4605 12.7081V25.9651Z" fill="#FEFEFE"/>
<path d="M23.5372 33.6085C23.5372 35.1915 22.2539 36.4748 20.6708 36.4748C19.0878 36.4748 17.8044 35.1915 17.8044 33.6085V22.0236C17.8044 21.8257 17.9649 21.6653 18.1628 21.6653C21.131 21.6653 23.5372 24.0715 23.5372 27.0397V33.6085Z" fill="#FEFEFE"/>
<path d="M25.9258 17.3657C25.9258 15.7826 27.2091 14.4993 28.7921 14.4993C30.3751 14.4993 31.6585 15.7826 31.6585 17.3657V36.5941C31.6585 36.792 31.498 36.9524 31.3002 36.9524C28.332 36.9524 25.9258 34.5462 25.9258 31.578V17.3657Z" fill="#FEFEFE"/>
<path d="M20.1932 21.1874C22.0401 21.1874 23.5373 19.6902 23.5373 17.8434C23.5373 15.9965 22.0401 14.4993 20.1932 14.4993C18.3463 14.4993 16.8491 15.9965 16.8491 17.8434C16.8491 19.6902 18.3463 21.1874 20.1932 21.1874Z" fill="#FEFEFE"/>
<path d="M34.0472 36.9523C34.8387 36.9523 35.4804 36.3106 35.4804 35.5191C35.4804 34.7276 34.8387 34.0859 34.0472 34.0859C33.2557 34.0859 32.614 34.7276 32.614 35.5191C32.614 36.3106 33.2557 36.9523 34.0472 36.9523Z" fill="#FEFEFE"/>
<path d="M11.5941 36.4745C13.441 36.4745 14.9382 34.9773 14.9382 33.1305C14.9382 31.2836 13.441 29.7864 11.5941 29.7864C9.7472 29.7864 8.25 31.2836 8.25 33.1305C8.25 34.9773 9.7472 36.4745 11.5941 36.4745Z" fill="#FEFEFE"/>
</g>
</g>
<defs>
<clipPath id="clip0_1_276">
<rect width="44" height="44" fill="white"/>
</clipPath>
<clipPath id="clip1_1_276">
<rect width="44" height="44" fill="white"/>
</clipPath>
</defs>
</svg>
